<svg width="65" height="66" viewBox="0 0 65 66" fill="none" xmlns="http://www.w3.org/2000/svg">
<rect opacity="0.24" x="1" y="1" width="64" height="64" rx="32" stroke="white"/>
<path fill-rule="evenodd" clip-rule="evenodd" d="M26 30C26 29.4477 26.4477 29 27 29H39C39.5523 29 40 29.4477 40 30C40 30.5523 39.5523 31 39 31H27C26.4477 31 26 30.5523 26 30Z" fill="#4A5568"/>
<path fill-rule="evenodd" clip-rule="evenodd" d="M26 36C26 35.4477 26.4477 35 27 35H39C39.5523 35 40 35.4477 40 36C40 36.5523 39.5523 37 39 37H27C26.4477 37 26 36.5523 26 36Z" fill="#4A5568"/>
</svg>
