<svg width="116" height="82" viewBox="0 0 116 82" fill="none" xmlns="http://www.w3.org/2000/svg">
<g id="logo-placeholder">
<path id="Fill 1" fill-rule="evenodd" clip-rule="evenodd" d="M30.2021 43.7765C32.7761 43.6315 32.7771 43.6315 33.6111 45.8835C34.5261 48.3535 35.4371 50.8245 36.3571 53.2925C36.5041 53.6865 36.6861 54.0675 36.9821 54.7605C37.9511 52.1395 38.8821 49.8195 39.6311 47.4405C39.8001 46.9015 39.3501 46.1575 39.1551 45.5165C38.9821 44.9515 38.7671 44.3975 38.5751 43.8535C38.6811 43.7945 38.7111 43.7635 38.7441 43.7605C41.1301 43.5655 41.1291 43.5655 41.9511 45.7795C42.9101 48.3615 43.8681 50.9425 44.8301 53.5225C44.9491 53.8395 45.0931 54.1485 45.3321 54.7155C45.9021 53.2115 46.3841 51.9545 46.8551 50.6925C47.5381 48.8605 48.2881 47.0475 48.8641 45.1825C49.2141 44.0475 49.7381 43.4755 50.9631 43.7125C51.2701 43.7715 51.5991 43.7205 52.0241 43.7205C51.9391 44.0695 51.8981 44.3635 51.7971 44.6345C50.2071 48.9405 48.5701 53.2285 47.0421 57.5545C46.6961 58.5355 46.1121 58.5495 45.3191 58.5405C44.5461 58.5305 43.9151 58.5835 43.5921 57.5735C42.9071 55.4305 42.0481 53.3435 41.1351 50.8985C40.2421 53.2655 39.3951 55.2805 38.7341 57.3535C38.4091 58.3715 37.8701 58.5425 36.9261 58.5625C35.9421 58.5835 35.4701 58.2945 35.1291 57.3365C33.6601 53.1995 32.0981 49.0955 30.5761 44.9785C30.4391 44.6115 30.3411 44.2285 30.2021 43.7765Z" fill="white"/>
<path id="Fill 3" fill-rule="evenodd" clip-rule="evenodd" d="M2.65418 50.9854V53.1444C2.65418 56.4754 2.66118 56.4814 6.05718 56.1744C8.42618 55.9614 9.99318 54.6124 10.5242 52.3324C11.0882 49.9024 10.3932 47.8504 8.58018 46.7314C7.04318 45.7824 5.36918 45.6284 3.61518 45.9474C2.90618 46.0764 2.60118 46.3834 2.63718 47.1484C2.69918 48.4244 2.65418 49.7064 2.65418 50.9854ZM2.66618 58.5504V63.7264H0.0861835C0.0651836 63.3624 0.0251835 62.9814 0.0241835 62.6004C0.0201835 57.0104 0.0431835 51.4214 0.000183547 45.8324C-0.00681645 44.9234 0.285183 44.4574 1.12618 44.1634C3.03018 43.4964 4.93918 43.0284 6.97818 43.3874C10.9482 44.0874 13.4492 47.2994 13.1502 51.3534C12.8332 55.6634 9.90018 58.6524 5.83718 58.7484C4.84618 58.7714 3.85318 58.6304 2.66618 58.5504Z" fill="white"/>
<g id="Group 7">
<mask id="mask0_1_296" style="mask-type:alpha" maskUnits="userSpaceOnUse" x="79" y="65" width="16" height="17">
<path id="Clip 6" fill-rule="evenodd" clip-rule="evenodd" d="M79.5822 65.7646H94.324V81.8225H79.5822V65.7646Z" fill="white"/>
</mask>
<g mask="url(#mask0_1_296)">
<path id="Fill 5" fill-rule="evenodd" clip-rule="evenodd" d="M84.3412 72.5207C85.4892 72.5207 86.6442 72.5527 87.7952 72.5107C88.7062 72.4767 89.6362 72.4467 90.5182 72.2427C91.4262 72.0337 91.9162 71.3177 91.9002 70.3717C91.8832 69.4817 91.4232 68.8057 90.5422 68.6177C89.7762 68.4537 88.9542 68.3387 88.1852 68.4327C85.8612 68.7157 84.2902 70.3947 84.3412 72.5207ZM93.9012 77.1997C94.1702 80.3267 94.2552 79.8717 91.9642 81.0007C89.9932 81.9737 87.8932 82.0707 85.7932 81.3557C82.8782 80.3647 81.7072 78.1047 81.4382 75.1067C80.8092 75.1447 80.2262 75.1797 79.5822 75.2197V72.8237C79.7952 72.7807 80.0172 72.7047 80.2402 72.6977C81.1642 72.6707 81.5432 72.3107 81.7202 71.2937C82.4772 66.9457 87.8042 64.4427 91.7462 66.4897C93.4222 67.3587 94.5002 69.2167 94.3002 70.8887C94.0742 72.7797 92.5562 74.4417 90.6122 74.8057C89.6762 74.9817 88.7122 75.0397 87.7582 75.0777C86.6472 75.1227 85.5322 75.0877 84.4442 75.0877C83.9012 77.2497 85.4892 79.0677 87.9012 79.2387C90.1382 79.3977 92.0272 78.5497 93.9012 77.1997Z" fill="white"/>
</g>
</g>
<path id="Fill 8" fill-rule="evenodd" clip-rule="evenodd" d="M57.0351 49.7169C58.9301 49.7169 60.4041 49.7359 61.8761 49.7069C62.4291 49.6959 62.9931 49.6279 63.5271 49.4879C64.4871 49.2379 65.0341 48.5709 65.0191 47.5709C65.0041 46.6229 64.4711 45.9999 63.5511 45.7629C61.6291 45.2669 59.8521 45.5989 58.4811 47.0539C57.8771 47.6949 57.5991 48.6449 57.0351 49.7169ZM57.4961 52.2879C57.1611 54.5909 58.6401 56.2669 60.9791 56.4329C62.7591 56.5589 64.3731 56.0959 65.8731 55.1659C66.2351 54.9419 66.5971 54.7169 66.9841 54.4769C67.4401 56.9189 67.3191 57.1529 65.2351 58.1439C63.3581 59.0349 61.4001 59.2589 59.4061 58.7149C56.8211 58.0109 55.2441 56.3139 54.7611 53.6479C54.6841 53.2239 54.5981 52.8019 54.5011 52.2979C53.8991 52.3429 53.3521 52.3829 52.7231 52.4299V50.0099C53.0561 49.9499 53.3631 49.8609 53.6741 49.8469C54.3801 49.8149 54.6721 49.5119 54.7901 48.7699C55.6161 43.5679 61.1741 42.0559 64.6151 43.5669C66.4151 44.3579 67.6131 46.2929 67.4261 48.0479C67.2161 50.0169 65.6061 51.7399 63.5351 52.0309C62.1991 52.2189 60.8341 52.2219 59.4811 52.2819C58.8121 52.3129 58.1411 52.2879 57.4961 52.2879Z" fill="white"/>
<path id="Fill 10" fill-rule="evenodd" clip-rule="evenodd" d="M18.4052 68.007C20.7232 65.626 24.0502 65.152 26.6682 66.621C28.3782 67.581 28.9442 69.235 29.2112 71.013C29.3522 71.955 29.3392 72.925 29.3452 73.883C29.3622 76.314 29.3512 78.743 29.3512 81.25H26.8792C26.8532 80.851 26.8002 80.4291 26.8032 80.007C26.8212 77.57 26.8382 75.133 26.8812 72.696C26.9232 70.354 25.2862 68.443 23.1412 68.371C20.8822 68.295 18.5612 70.375 18.4922 72.656C18.4202 75.052 18.4672 77.451 18.4632 79.85C18.4622 80.284 18.4632 80.718 18.4632 81.239H15.9592V62.05H18.4052V68.007Z" fill="white"/>
<path id="Fill 12" fill-rule="evenodd" clip-rule="evenodd" d="M22.3207 56.1954C25.1957 56.1984 27.5497 53.8474 27.5987 50.9264C27.6487 47.9894 25.2467 45.5604 22.2997 45.5694C19.3867 45.5774 17.0547 47.9114 17.0457 50.8284C17.0357 53.8204 19.3677 56.1934 22.3207 56.1954ZM14.4247 50.8304C14.4427 46.5274 18.0077 42.9984 22.3297 43.0034C26.5977 43.0074 30.2277 46.6214 30.2377 50.8764C30.2487 55.1164 26.6127 58.7494 22.3427 58.7614C17.9717 58.7744 14.4057 55.2024 14.4247 50.8304Z" fill="white"/>
<path id="Fill 14" fill-rule="evenodd" clip-rule="evenodd" d="M38.6073 78.9952C41.5373 79.0072 43.9403 76.5852 43.9193 73.6412C43.9003 70.7302 41.5433 68.3712 38.6533 68.3692C35.7313 68.3672 33.3843 70.6862 33.3653 73.5942C33.3463 76.5932 35.6673 78.9832 38.6073 78.9952ZM30.7443 73.7092C30.7393 69.3392 34.3233 65.7712 38.6903 65.8032C42.9623 65.8342 46.5733 69.4652 46.5583 73.7172C46.5433 77.9612 42.8853 81.5762 38.6233 81.5612C34.2943 81.5472 30.7503 78.0142 30.7443 73.7092Z" fill="white"/>
<path id="Fill 16" fill-rule="evenodd" clip-rule="evenodd" d="M62.1137 81.2666H59.7127C59.6607 80.7596 59.6147 80.3066 59.5527 79.7006C57.6507 81.9616 55.2937 82.0606 52.8097 81.5156C50.7107 81.0546 49.3007 79.6436 49.1087 77.5966C48.7587 73.8836 48.7537 70.1386 48.6017 66.3406H51.3027C51.3027 67.6516 51.2977 68.9566 51.3047 70.2626C51.3147 71.9406 51.2847 73.6206 51.3627 75.2946C51.4797 77.8006 52.8537 79.2036 55.1087 79.2346C57.3937 79.2646 59.4797 77.4896 59.5687 75.2476C59.6757 72.5356 59.6187 69.8156 59.6367 67.0996C59.6387 66.8676 59.6707 66.6346 59.6927 66.3466H62.1137V81.2666Z" fill="white"/>
<path id="Fill 18" fill-rule="evenodd" clip-rule="evenodd" d="M29.5907 38.8042H27.1297C27.0987 38.3422 27.0477 37.8862 27.0417 37.4282C27.0117 34.9122 27.0497 32.3942 26.9547 29.8812C26.8577 27.2972 25.4537 25.8932 23.1417 25.8892C20.8147 25.8862 18.7907 27.7432 18.7337 30.0632C18.6677 32.7782 18.7077 35.4952 18.6987 38.2122C18.6977 38.3672 18.6667 38.5212 18.6407 38.7602H16.1987V23.8912H18.5947C18.6427 24.3272 18.6937 24.7842 18.7627 25.4172C20.1207 23.7542 21.8537 23.2222 23.7907 23.3512C27.3337 23.5872 28.9657 25.1082 29.4737 28.6372C29.6037 29.5412 29.5807 30.4712 29.5867 31.3882C29.5997 33.8192 29.5907 36.2502 29.5907 38.8042Z" fill="white"/>
<path id="Fill 20" fill-rule="evenodd" clip-rule="evenodd" d="M44.3207 23.844H46.7757V38.761H44.3617C44.3137 38.315 44.2647 37.857 44.1957 37.218C42.8427 38.908 41.0987 39.42 39.1637 39.292C35.6167 39.058 33.8077 37.541 33.5267 34C33.2617 30.674 33.4697 27.309 33.4697 23.881H35.9437C35.9437 25.785 35.9387 27.654 35.9457 29.522C35.9487 30.601 35.9357 31.681 35.9937 32.757C36.1317 35.338 37.4967 36.749 39.8107 36.755C42.1407 36.76 44.1457 34.933 44.2217 32.588C44.3057 29.993 44.2607 27.395 44.2757 24.799C44.2777 24.524 44.3007 24.249 44.3207 23.844Z" fill="white"/>
<path id="Fill 22" fill-rule="evenodd" clip-rule="evenodd" d="M76.8071 71.4152H74.8121C74.3101 68.5762 71.5501 67.1852 69.0691 68.5792C68.5261 68.8852 67.9211 69.6452 67.9221 70.1952C67.9221 70.7282 68.5601 71.4862 69.1061 71.7442C70.1371 72.2282 71.3051 72.4172 72.4121 72.7432C73.2901 73.0012 74.1961 73.2022 75.0311 73.5622C78.5001 75.0612 77.7591 79.1302 75.6651 80.6032C73.1021 82.4092 68.5001 82.0742 66.3351 79.8202C65.3721 78.8182 64.9161 77.6422 65.1851 76.1792H67.3271C68.0191 79.0452 71.9011 80.3192 74.2371 78.4752C75.3721 77.5792 75.2441 76.1762 73.8731 75.6452C72.6931 75.1882 71.4141 74.9872 70.1931 74.6262C69.3191 74.3672 68.4091 74.1392 67.6171 73.7082C65.0381 72.3092 64.7921 68.8122 67.0921 66.9932C69.4371 65.1402 73.8021 65.5472 75.7591 67.8102C76.6381 68.8262 77.0271 69.9962 76.8071 71.4152Z" fill="white"/>
<path id="Fill 24" fill-rule="evenodd" clip-rule="evenodd" d="M70.2026 43.5323H72.5626C72.6236 43.8993 72.6806 44.2393 72.7216 44.4883C73.6646 44.0653 74.5726 43.5113 75.5586 43.2583C76.5846 42.9943 77.6856 43.0233 78.8666 42.9143V45.5703C78.3856 45.5703 77.8466 45.5563 77.3076 45.5733C74.6006 45.6523 72.7356 47.5163 72.7106 50.2123C72.6846 52.9243 72.7046 55.6353 72.7046 58.4363H70.2026V43.5323Z" fill="white"/>
<path id="Fill 26" fill-rule="evenodd" clip-rule="evenodd" d="M108.509 19.9006C107.368 20.1706 106.572 20.3866 105.762 20.5306C105.547 20.5696 105.236 20.4446 105.078 20.2856C104.995 20.2016 105.081 19.8336 105.201 19.6806C105.954 18.7196 106.738 17.7836 107.513 16.8396L107.905 17.1096C107.288 17.9746 106.671 18.8396 105.902 19.9196C106.882 19.6946 107.654 19.4926 108.435 19.3546C108.705 19.3066 109.003 19.4196 109.288 19.4586C109.192 19.7316 109.15 20.0446 108.987 20.2696C108.528 20.9056 108.018 21.5056 107.353 22.3386C108.667 22.0706 109.702 21.8606 110.738 21.6506L110.846 22.1056C109.593 22.4116 108.341 22.7256 107.078 22.9846C107.046 22.9916 106.713 22.2936 106.824 22.1106C107.249 21.4196 107.8 20.8056 108.509 19.9006Z" fill="white"/>
<path id="Fill 28" fill-rule="evenodd" clip-rule="evenodd" d="M85.9067 5.90045C86.3857 4.67045 86.8627 3.44045 87.3407 2.21045C87.4737 2.21245 87.6067 2.21345 87.7397 2.21545C87.9547 3.26545 88.1707 4.31445 88.4187 5.52445C89.3877 4.83245 90.2747 4.19945 91.1617 3.56645L91.4637 3.84445C90.9697 5.05945 90.4757 6.27545 89.9827 7.49145C89.8407 7.44045 89.6977 7.38945 89.5537 7.33845C89.7907 6.59245 90.0267 5.84645 90.3577 4.80245C89.5047 5.40245 88.8607 5.85445 88.0747 6.40745C87.8797 5.50945 87.7167 4.76345 87.4987 3.76545C87.0387 4.66045 86.6727 5.37345 86.3057 6.08645C86.1727 6.02445 86.0397 5.96245 85.9067 5.90045Z" fill="white"/>
<path id="Fill 30" fill-rule="evenodd" clip-rule="evenodd" d="M114.023 54.303C112.754 53.973 111.485 53.642 110.215 53.312C110.193 53.184 110.17 53.055 110.148 52.927C111.217 52.399 112.287 51.869 113.56 51.24C112.558 50.906 111.749 50.636 110.939 50.365C110.982 50.213 111.025 50.061 111.069 49.908C112.351 50.223 113.634 50.538 114.917 50.853C114.952 50.972 114.987 51.09 115.021 51.209C113.93 51.759 112.839 52.31 111.557 52.957C112.545 53.27 113.348 53.525 114.152 53.78C114.109 53.953 114.066 54.128 114.023 54.303Z" fill="white"/>
<path id="Fill 32" fill-rule="evenodd" clip-rule="evenodd" d="M64.0199 4.87361C65.0069 4.64961 66.0049 4.62661 66.2249 3.58761C66.3279 3.10561 66.0849 2.20861 65.7429 2.04861C65.0859 1.74061 64.2469 1.82461 63.2789 1.72461C63.5719 2.96661 63.7769 3.83761 64.0199 4.87361ZM63.5229 5.53261C63.2119 4.20461 62.9169 2.94861 62.6059 1.61961C63.9569 1.32061 65.2369 0.587606 66.3079 1.68961C66.7439 2.13761 66.9989 3.11861 66.8349 3.71961C66.4059 5.29161 64.8469 5.14461 63.5229 5.53261Z" fill="white"/>
<path id="Fill 34" fill-rule="evenodd" clip-rule="evenodd" d="M50.3183 11.3117C51.2763 11.3197 52.0593 10.6047 52.0893 9.84173C52.1213 9.04573 51.2673 8.11473 50.5003 8.21373C49.6313 8.32573 48.9723 8.80073 48.9923 9.76273C49.0113 10.6727 49.5393 11.2207 50.3183 11.3117ZM50.4033 11.9547C49.3643 11.9507 48.3393 10.9227 48.3223 9.86773C48.3033 8.69973 49.4333 7.65073 50.6843 7.67573C51.8443 7.69873 52.6943 8.59273 52.6643 9.75473C52.6333 10.9067 51.5513 11.9597 50.4033 11.9547Z" fill="white"/>
<path id="Fill 36" fill-rule="evenodd" clip-rule="evenodd" d="M70.1459 2.92255C70.8979 2.53755 71.4789 2.29255 71.9819 1.93755C72.0799 1.86955 71.9469 1.16255 71.7999 1.11455C71.2259 0.925545 70.6049 0.882545 69.8339 0.758545C69.9509 1.56755 70.0179 2.03355 70.1459 2.92255ZM72.0299 3.00855C72.2869 3.40555 72.4909 3.72055 72.7449 4.11355C71.7469 4.33455 70.6409 1.33555 69.8289 4.30354C69.1489 3.17055 69.5929 1.83155 69.2089 0.665545C70.4199 0.0745452 71.7809 0.120545 72.3499 0.747545C72.8949 1.34755 72.8259 1.87355 72.0299 3.00855Z" fill="white"/>
<path id="Fill 38" fill-rule="evenodd" clip-rule="evenodd" d="M112.76 27.5059C112.616 27.1979 112.475 26.8889 112.328 26.5819C112.178 26.2639 112.024 25.9469 111.855 25.5979C109.885 25.9229 111.702 27.1639 111.15 28.0739C110.809 27.3769 110.539 26.8259 110.24 26.2149C109.87 26.3539 109.551 26.4739 109.139 26.6289C109.406 27.4069 109.65 28.1199 109.894 28.8329C109.767 28.8839 109.639 28.9359 109.512 28.9869C109.133 28.1029 108.754 27.2179 108.342 26.2559C109.593 25.7349 110.762 25.2469 112.09 24.6929C112.464 25.6069 112.822 26.4799 113.179 27.3519L112.76 27.5059Z" fill="white"/>
<path id="Fill 40" fill-rule="evenodd" clip-rule="evenodd" d="M114.679 33.9839C113.839 34.1369 113.324 34.2309 112.536 34.3749C112.882 35.0699 113.099 35.6299 113.438 36.1039C113.523 36.2219 114.217 36.1349 114.257 36.0149C114.453 35.4369 114.523 34.8159 114.679 33.9839ZM112.072 34.4799H111.019C110.992 34.3499 110.966 34.2199 110.94 34.0909C112.165 33.6359 113.473 33.5129 114.772 33.3669C115.395 35.6209 115.241 36.4499 114.186 36.7819C113.204 37.0909 112.791 36.6589 112.072 34.4799Z" fill="white"/>
<g id="Group 44">
<mask id="mask1_1_296" style="mask-type:alpha" maskUnits="userSpaceOnUse" x="75" y="0" width="4" height="5">
<path id="Clip 43" fill-rule="evenodd" clip-rule="evenodd" d="M75.1318 0.000488281H78.2588V4.20039H75.1318V0.000488281Z" fill="white"/>
</mask>
<g mask="url(#mask1_1_296)">
<path id="Fill 42" fill-rule="evenodd" clip-rule="evenodd" d="M75.8988 1.69849C76.5568 1.82349 77.1478 1.93749 77.7398 2.05049C77.7348 2.12549 77.7298 2.20049 77.7258 2.27549H75.9558C75.8898 2.74049 75.8398 3.09949 75.7848 3.50149C76.5838 3.61849 77.2908 3.72249 77.9978 3.82549C77.9838 3.95049 77.9698 4.07549 77.9568 4.20049C77.0698 4.14349 76.1828 4.08749 75.1318 4.02049C75.1998 2.68749 75.2628 1.43649 75.3358 0.000488281C76.3738 0.0894883 77.2828 0.166488 78.2588 0.250488C77.7508 1.36549 75.7958 -0.365512 75.8988 1.69849Z" fill="white"/>
</g>
</g>
<path id="Fill 45" fill-rule="evenodd" clip-rule="evenodd" d="M83.0571 3.72177C82.9271 2.98277 82.8281 2.41577 82.6701 1.52177C82.1461 2.26877 81.8191 2.73577 81.4111 3.31777C81.9671 3.45477 82.4051 3.56177 83.0571 3.72177ZM83.7581 5.42977C82.8211 3.67477 81.5661 3.40977 79.9371 4.37277C80.6741 3.35677 81.3881 2.32177 82.1591 1.33077C82.6351 0.71677 83.0601 0.88977 83.2251 1.58977C83.5031 2.77377 83.7261 3.97077 83.9711 5.16077C83.9011 5.25077 83.8291 5.34077 83.7581 5.42977Z" fill="white"/>
<path id="Fill 47" fill-rule="evenodd" clip-rule="evenodd" d="M54.1972 5.17342C54.4852 5.70842 54.7662 6.24642 55.0632 6.77642C55.4572 7.48042 55.8342 8.31842 56.8652 7.75242C57.8642 7.20242 57.4192 6.41142 57.0752 5.68142C56.8882 5.28642 56.6432 4.91742 56.4822 4.51242C56.4172 4.34842 56.5072 4.12242 56.5262 3.92442C56.6352 3.89142 56.7452 3.85942 56.8562 3.82642C57.2692 4.77342 57.8252 5.69042 58.0302 6.67942C58.1212 7.11842 57.6172 7.90942 57.1692 8.16742C56.7082 8.43242 55.7132 8.49942 55.4302 8.20042C54.6962 7.42342 54.2242 6.39742 53.6482 5.46942C53.8312 5.37142 54.0142 5.27242 54.1972 5.17342Z" fill="white"/>
<path id="Fill 49" fill-rule="evenodd" clip-rule="evenodd" d="M114.952 46.0529C114.188 45.6159 113.697 45.3359 113.053 44.9669C112.968 45.5959 112.906 46.0599 112.821 46.6899C113.543 46.4739 114.056 46.3209 114.952 46.0529ZM111.824 43.6099C112.94 44.2559 114.073 44.8739 115.151 45.5779C115.308 45.6809 115.297 46.4349 115.202 46.4719C113.974 46.9489 112.719 47.3509 111.212 47.8599C112.764 45.5689 112.764 45.5689 111.824 43.6099Z" fill="white"/>
<path id="Fill 51" fill-rule="evenodd" clip-rule="evenodd" d="M100.121 9.99039C99.7485 9.56939 99.4815 9.26739 99.2165 8.96739L99.4855 8.67139L102.052 10.8034C101.979 10.9164 101.907 11.0284 101.835 11.1404C101.48 10.9214 101.125 10.7024 100.71 10.4474C99.9305 11.2854 99.1345 12.1394 98.3385 12.9944C98.2225 12.8784 98.1065 12.7614 97.9905 12.6454C98.6955 11.7674 99.3995 10.8894 100.121 9.99039Z" fill="white"/>
<path id="Fill 53" fill-rule="evenodd" clip-rule="evenodd" d="M110.251 62.8243L108.429 65.5933C108.322 65.5283 108.217 65.4643 108.11 65.3993C108.281 65.0263 108.453 64.6523 108.658 64.2033C107.716 63.5653 106.784 62.9343 105.853 62.3033C105.925 62.1683 105.997 62.0313 106.07 61.8943C107.039 62.4333 108.008 62.9713 109.057 63.5543C109.329 63.2393 109.616 62.9073 109.903 62.5743C110.02 62.6573 110.135 62.7413 110.251 62.8243Z" fill="white"/>
<path id="Fill 55" fill-rule="evenodd" clip-rule="evenodd" d="M47.391 15.0215C46.057 14.4855 44.782 13.9745 43.508 13.4625C43.52 13.3735 43.534 13.2835 43.547 13.1935C44.312 13.3235 45.078 13.4535 45.976 13.6055C45.871 12.7635 45.771 11.9615 45.671 11.1595C45.738 11.1545 45.804 11.1495 45.87 11.1445C46.394 12.4795 46.918 13.8155 47.391 15.0215Z" fill="white"/>
<path id="Fill 57" fill-rule="evenodd" clip-rule="evenodd" d="M115.734 39.7173C114.637 39.7833 113.54 39.8503 112.395 39.9193C112.346 40.6433 112.304 41.2873 112.261 41.9303C112.144 41.9333 112.026 41.9353 111.909 41.9383C111.859 41.0973 111.81 40.2573 111.758 39.3653C113.188 39.2233 114.463 38.9483 115.718 39.2973C115.724 39.4373 115.729 39.5773 115.734 39.7173Z" fill="white"/>
<path id="Fill 59" fill-rule="evenodd" clip-rule="evenodd" d="M95.2348 10.6807C95.0728 9.45272 96.4918 7.43372 97.5458 7.18872C96.6968 8.47272 95.9648 9.57672 95.2348 10.6807Z" fill="white"/>
<path id="Fill 61" fill-rule="evenodd" clip-rule="evenodd" d="M107.774 58.584C108.688 58.411 110.693 59.302 111.569 60.174C110.922 60.38 109.187 59.672 107.774 58.584Z" fill="white"/>
</g>
</svg>
